<?xml version="1.0" encoding="utf-8"?>
<!-- Generator: Adobe Illustrator 19.1.0, SVG Export Plug-In . SVG Version: 6.00 Build 0)  -->
<svg version="1.1" id="Layer_1" xmlns="http://www.w3.org/2000/svg" xmlns:xlink="http://www.w3.org/1999/xlink" x="0px" y="0px"
	 viewBox="0 0 743.1 681.9" style="enable-background:new 0 0 743.1 681.9;" width="762px" height="699px" xml:space="preserve">
<style type="text/css">
	.st0{fill:#BDDBFF;}
	.st1{opacity:0.1;}
	.st2{fill:#FFFFFF;}
	.st3{opacity:0.15;}
	.st4{fill:#82AEF7;}
	.st5{fill:#F4B7A2;}
	.st6{fill:#240BB2;}
	.st7{fill:#18029B;}
	.st8{fill:#748DEF;}
	.st9{fill:#FFE47E;}
	.st10{fill:#135356;}
	.st11{fill:#3F0DD5;}
	.st12{fill:#FFD642;}
	.st13{fill:#F9BD00;}
	.st14{fill:#212A2D;}
	.st15{opacity:0.2;}
	.st16{fill:#A5FFEA;}
	.st17{opacity:0.3;}
	.st18{fill:#1DCECE;}
	.st19{fill:#1A1243;}
	.st20{fill:#CE775F;}
</style>
<g>
	<rect x="168.8" y="60.9" class="st0" width="494.8" height="498.7"/>
</g>
<g class="st1">
	<rect x="168.8" y="61.3" width="494.8" height="8.6"/>
</g>
<g class="st1">
	<rect x="208.3" y="239.5" width="455.3" height="259.4"/>
</g>
<g>
	<rect x="218.3" y="230.5" class="st2" width="524.8" height="252.4"/>
</g>
<g class="st3">
	<g>
		<path class="st4" d="M460.8,354.6H316.2c-2.8,0-5-2.2-5-5s2.2-5,5-5h144.6c2.8,0,5,2.2,5,5S463.6,354.6,460.8,354.6z"/>
	</g>
</g>
<g>
	<path class="st5" d="M249.9,290.4L225,338.5c-8.4,2.8-28.2-18-32.3-26l20.7-51L249.9,290.4z"/>
</g>
<g class="st1">
	<path d="M246.2,297.6l-4.8,9.3c0,0-12.6-10.6-9-28.1C235.5,263.3,246.2,297.6,246.2,297.6z"/>
</g>
<g>
	<path class="st6" d="M392.3,584.6c-25.2-18.2-189-88.7-189-88.7l-100.5,1.3c-3,12.7-5.2,26.8-6.5,33.6
		c-2.1,10.8-15.6,47.5-0.5,71.4c-11.1,14.4-39.1,51-48.6,66.3c-3.6,5.8,0.6,13.4,7.4,13.4h32.6h20.9h183.5h34.8
		C430.9,681.9,432.8,613.7,392.3,584.6z"/>
</g>
<g>
	<path class="st7" d="M287.5,640.1H108c-0.6,0-1-0.4-1-1s0.4-1,1-1h179.5c0.6,0,1,0.4,1,1S288,640.1,287.5,640.1z"/>
</g>
<g>
	<g>
		<path class="st2" d="M79.9,681.9H15c-6.9,0-7.4-7.6-3.8-13.4c12-19.2,62.8-75.3,62.8-75.3c25.8,4.6,36.5,12.7,43.4,9.7L79.9,681.9
			z"/>
	</g>
	<g>
		<path class="st0" d="M71,667.2l35-65.8c-6.9,3.1-13.5-10.6-39.3-15.2c0,0-52.4,63.1-64.4,82.3c-3.6,5.8-3.1,13.4,3.8,13.4h50h7.1
			h21.2C84.3,674.2,78.5,667.9,71,667.2z"/>
	</g>
	<g>
		<g>
			<path class="st8" d="M67.7,586.4c-3-0.8-6.2,0.3-8.1,2.7c-11,14-47.3,63.2-57.4,79.4c-3.7,5.8-3.1,13.4,3.8,13.4h1.3l66.3-94
				C71.3,587.4,69.4,586.9,67.7,586.4z"/>
		</g>
	</g>
	<g>
		<path class="st2" d="M70.2,635.2c-5.9,0-10.8-4.8-10.8-10.8s4.8-10.8,10.8-10.8c5.9,0,10.8,4.8,10.8,10.8S76.1,635.2,70.2,635.2z
			 M70.2,615.6c-4.8,0-8.8,3.9-8.8,8.8s3.9,8.8,8.8,8.8s8.8-3.9,8.8-8.8S75,615.6,70.2,615.6z"/>
	</g>
	<g>
		<path class="st2" d="M45.5,681.9c-0.6,0-1-0.4-1-1c0-8.6,6.8-15,15.8-15h12.5v14.5c0,0.6-0.4,1-1,1s-1-0.4-1-1v-12.5H60.4
			c-7.9,0-13.8,5.6-13.8,13C46.5,681.5,46.1,681.9,45.5,681.9z"/>
	</g>
	<g>
		<path class="st2" d="M59,681.4c-0.6,0-1-0.4-1-1v-13.1c0-0.6,0.4-1,1-1s1,0.4,1,1v13.1C60,680.9,59.6,681.4,59,681.4z"/>
	</g>
</g>
<g>
	<path class="st9" d="M206.6,496.4l8-30.8c3-20.1,31.4-52.4,31.4-72c0-4.9,3.4-19.7-18-58.2c-4-7.2-25.1-27.1-34-29
		c-41.2-9-27.1,8-53.6,45.8c-41,58.4-50.1,118-54.9,144.5L206.6,496.4z"/>
</g>
<g>
	<path class="st10" d="M204,497.3H98.5c-0.6,0-1-0.4-1-1s0.4-1,1-1H204c0.6,0,1,0.4,1,1S204.6,497.3,204,497.3z"/>
</g>
<g>
	<path class="st10" d="M270.4,559.6c-0.8-0.3-79.6-28.7-93.6-34.7c-14.6-6.2-14.5-26.6-14.4-27.5l2,0c0,0.2-0.1,20,13.2,25.6
		c13.9,5.9,92.7,34.4,93.5,34.6L270.4,559.6z"/>
</g>
<g>
	<g>
		<path class="st10" d="M188.9,496.9c-0.6,0-1-0.4-1-1v-15.5c0-0.6,0.4-1,1-1s1,0.4,1,1v15.5C189.9,496.5,189.5,496.9,188.9,496.9z"
			/>
	</g>
	<g>
		<path class="st10" d="M169.7,496.9c-0.6,0-1-0.4-1-1v-15.5c0-0.6,0.4-1,1-1s1,0.4,1,1v15.5C170.7,496.5,170.2,496.9,169.7,496.9z"
			/>
	</g>
	<g>
		<path class="st10" d="M148.7,496.9c-0.6,0-1-0.4-1-1v-15.5c0-0.6,0.4-1,1-1s1,0.4,1,1v15.5C149.7,496.5,149.2,496.9,148.7,496.9z"
			/>
	</g>
	<g>
		<path class="st10" d="M130,496.9c-0.6,0-1-0.4-1-1v-15.5c0-0.6,0.4-1,1-1s1,0.4,1,1v15.5C131,496.5,130.6,496.9,130,496.9z"/>
	</g>
	<g>
		<path class="st10" d="M108.7,496.9c-0.6,0-1-0.4-1-1v-15.5c0-0.6,0.4-1,1-1s1,0.4,1,1v15.5C109.7,496.5,109.2,496.9,108.7,496.9z"
			/>
	</g>
</g>
<g>
	<path class="st2" d="M666.2,61.9H121.9c-17.1,0-30.9-13.9-30.9-30.9S104.8,0,121.9,0h544.4c17.1,0,30.9,13.9,30.9,30.9
		S683.3,61.9,666.2,61.9z M121.9,2c-16,0-28.9,13-28.9,28.9s13,28.9,28.9,28.9h544.4c16,0,28.9-13,28.9-28.9S682.2,2,666.2,2H121.9z
		"/>
</g>
<g>
	<g>
		<path class="st11" d="M346.5,403.5c-39.6,6.3-148.9,58.2-180.9,73.7l-78.4-5.8l-3.8,13c-19.8,75.8-10.2,131.9,46.6,138
			c34.8,3.1,53.8-6.2,116.8-63.6C235,604.7,270.3,635,270.3,635l105.2-121.5C421,416.6,395.7,395.7,346.5,403.5z"/>
	</g>
	<g class="st1">
		<path d="M152.3,652.9c-6.7,20.4-10,24.3-14.8,29c31.8,0,144.8,0,144.8,0v0c0-6.4-2.9-12.5-7.8-16.6l-6.5-5.5
			c-6.3-5.3-8-14.2-4-21.4l74.9-124.9c50.3-91.2,25.7-71.8-23.5-64C288.2,478.5,187.2,548.4,152.3,652.9z"/>
	</g>
	<g>
		<path class="st11" d="M191.4,641.9c-4.2,20.2,113.3,18,113.3,18c-6.3-5.3-8-14.2-4-21.4l74.9-124.9c50.3-91.2,20.2-117.8-29.1-110
			C319.4,432.5,222.8,524.9,191.4,641.9z"/>
	</g>
	<g>
		<polygon class="st2" points="294.9,648.2 212.3,641.3 195.1,629.3 202,609.3 305,624.6 		"/>
	</g>
	<g class="st1">
		<path d="M201.7,341.4c0,0,4,161.2,81.2,175.2c98,17.7,127.3-132.2,133.3-137.9c11-10.5-113.7,85.6-133.8,69.8
			C262.9,433.1,193.1,316.1,201.7,341.4z"/>
	</g>
	<g>
		<path class="st7" d="M208.1,595.2c-0.1,0-0.3,0-0.4-0.1c-0.5-0.2-0.7-0.8-0.5-1.3c1.1-2.6,1.6-3.6,2.7-6l0.1-0.3
			C246.7,506,307.7,442.5,337,412c3.4-3.5,6.3-6.6,8.7-9.1c0.4-0.4,1-0.4,1.4,0c0.4,0.4,0.4,1,0,1.4c-2.4,2.6-5.3,5.6-8.7,9.2
			c-29.2,30.4-90.1,93.8-126.7,174.9l-0.1,0.3c-1.1,2.4-1.6,3.5-2.6,6C208.9,595,208.5,595.2,208.1,595.2z"/>
	</g>
	<g class="st3">
		<g>
			<path class="st4" d="M214.5,611.5l-6.6,25.6c-0.1,0.5,0.2,1.1,0.7,1.2c0.1,0,0.2,0,0.2,0c0.4,0,0.9-0.3,1-0.8l6.6-25.6
				c0.1-0.2,0-0.4-0.1-0.6l-1.7-0.2C214.6,611.3,214.6,611.4,214.5,611.5z"/>
		</g>
		<g>
			<path class="st4" d="M228.1,638.3c0.1,0,0.2,0,0.2,0c0.4,0,0.9-0.3,1-0.8l6-23.3l-2-0.3l-5.9,23.1
				C227.2,637.6,227.5,638.1,228.1,638.3z"/>
		</g>
		<g>
			<path class="st4" d="M247.3,639.7c0.1,0,0.2,0,0.3,0c0.4,0,0.9-0.3,1-0.7l5.7-21.9l-2-0.3l-5.7,21.7
				C246.4,639,246.7,639.5,247.3,639.7z"/>
		</g>
		<g>
			<path class="st4" d="M264.8,639.7c0.1,0,0.2,0,0.2,0c0.4,0,0.9-0.3,1-0.8l4.9-19.4l-2-0.3l-4.8,19.2
				C263.9,639,264.2,639.5,264.8,639.7z"/>
		</g>
		<g>
			<path class="st4" d="M279.8,640.8c0.1,0,0.2,0,0.3,0c0.4,0,0.8-0.3,1-0.7l4.8-18.4l-2-0.3l-4.7,18.2
				C278.9,640.1,279.2,640.7,279.8,640.8z"/>
		</g>
	</g>
	<g class="st1">
		<polygon points="277.3,620.4 198.3,620.4 202,609.3 305,624.6 		"/>
	</g>
</g>
<g>
	<path class="st7" d="M249.9,604c-0.2,0-0.3,0-0.4-0.1c-0.5-0.2-0.7-0.8-0.4-1.3c0.5-0.9,47-92.8,88.6-133.1c0.4-0.4,1-0.4,1.4,0
		c0.4,0.4,0.4,1,0,1.4c-41.4,40.1-87.8,131.6-88.2,132.6C250.6,603.8,250.3,604,249.9,604z"/>
</g>
<g>
	<g>
		<path class="st5" d="M402,338.5c5.8-8.6,17.5-31.5,28.9-32.7c9.7-1-6.9,16.5-6.9,16.5L402,338.5z"/>
	</g>
	<g>
		<path class="st5" d="M453.2,352.5c-3.8,4-6.4-0.9-5.9-3.3c3.3-16.8,0.1-26.9,4.5-24.2c2.2,1.3,8.2,3.2,8.7,5.1
			c1.6,5.2-3.3,12.3-3.3,12.3L453.2,352.5z"/>
	</g>
	<g>
		<polygon class="st11" points="467.5,341.8 469.7,354 458.5,354.1 388.3,302.8 397.2,290.6 		"/>
	</g>
</g>
<g>
	<g>
		<path class="st5" d="M457.2,329.4c1.6-2.4,1.1-6.1-1.6-7.5c-2.5-1.3,0.6-2.7-2.5-6.1c-0.9-1-2.2-1.6-3.5-1.9
			c-0.3-2.2-1.4-3.9-3.4-3.9c-8.3,0-15.9,1.9-20.2,3.2c-0.6,0.1-1.2,0.3-1.8,0.4c-0.6,0.1-1.2,0.4-1.8,0.8c0,0,0,0,0,0l0,0
			c-6,3.8-14.4,17.7-17.4,20.2c-8.2,6.9-54.1,61-91,93.5c-4,3.5-10.3,10.3-10.3,10.3c-25.2-16.2-75.5-93.9-98.2-113.3
			c-13-11.1-39.5,16-30.9,41.3c0,0,40,116.9,116.5,133.9c77.5,17.3,137-133.7,143-139.4c11-10.5,11.2-10,19.4-22.4
			c1.5-2.3,5.6-1.5,6.1-2.6C460.1,334.3,459,331.7,457.2,329.4z"/>
	</g>
	<g class="st1">
		<polygon points="208.3,433.6 214.7,442.8 258.2,388.9 224.8,401.4 		"/>
	</g>
</g>
<g>
	<path class="st12" d="M205.3,438.9c-23.7-26.7-35-62-36.4-83.4c-1.5-23.4,23.4-50.7,48.8-25.7c14.4,16.8,19.8,23.8,42.7,56.9
		L205.3,438.9z"/>
</g>
<g>
	<path class="st13" d="M204,438.4c-0.3,0-0.6-0.1-0.8-0.4c-20.6-29.1-33.7-59.9-35.2-82.4c-0.9-14.2,7.3-29.1,19.2-34.5
		c10.2-4.7,21.3-1.8,31.3,8.1c0.4,0.4,0.4,1,0,1.4c-0.4,0.4-1,0.4-1.4,0c-9.4-9.2-19.7-12-29-7.7c-11,5-18.9,19.3-18,32.6
		c1.5,22.1,14.5,52.6,34.9,81.4c0.3,0.5,0.2,1.1-0.2,1.4C204.4,438.3,204.2,438.4,204,438.4z"/>
</g>
<g>
	<path class="st14" d="M234.1,196.2c0,10.1-4.2,17.4-14.3,17.4c-10.1,0-22.9-6.8-24.4-18.3c-1.3-10,5.8-20.5,24.4-18.3
		C229.8,178.2,234.1,186.1,234.1,196.2z"/>
</g>
<g>
	<path class="st14" d="M213.5,214.8c-16.4,0-23.9-6.7-25.3-13.8c-2-9.7,6.6-20.3,19.2-23.5c13.8-3.5,22.9-2.5,27.1,2.8
		c5.8,7.3,0.5,20.3-1.4,24.5c5.5,0.7,8.3,1.9,8.3,3.5c0,1.5-1.2,3.2-16.5,5.5C220.7,214.6,216.9,214.8,213.5,214.8z M221.6,177.5
		c-3.8,0-8.3,0.7-13.6,2c-12.9,3.3-19.3,13.5-17.7,21.1c1.6,7.7,11.4,14.8,34.5,11.3c11.2-1.7,14-2.9,14.7-3.5
		c-1-0.6-4.3-1.4-7.7-1.8l-1.5-0.2l0.7-1.3c0.1-0.2,8.2-16,2.2-23.6C230.8,178.9,227,177.5,221.6,177.5z"/>
</g>
<g>
	<path class="st0" d="M311.2,665.3l-6.5-5.4c-6.3-5.3-8-14.2-4-21.4l2-3.4h-0.1l6.6-11c-5.4-2-13.3-3.6-19.1,5.1
		c-1.3,1.9-2.4,3.9-3.4,5.9h-16.3h-62.9c0,0-4.3-3.4-12.3-6.1c-1.9,5.8-2.2,7-3.8,12.9c-4.2,20.2-4.6,40,2.5,40
		c31.8,0,125.1,0,125.1,0C319,675.5,316.2,669.4,311.2,665.3z"/>
</g>
<g>
	<g>
		<path class="st8" d="M188.5,671.8c0.5,6.2,2.2,10.1,5.4,10.1c31.8,0,125.1,0,125.1,0c0-3.6-0.9-7-2.5-10.1H188.5z"/>
	</g>
</g>
<g>
	<path class="st8" d="M218.5,674.6c-0.6,0-1-0.4-1-1c0-40-21.1-43.5-21.3-43.5c-0.5-0.1-0.9-0.6-0.8-1.1c0.1-0.5,0.6-0.9,1.1-0.9
		c0.9,0.1,23,3.7,23,45.5C219.5,674.2,219.1,674.6,218.5,674.6z"/>
</g>
<g>
	<path class="st2" d="M241.5,663.6c-5.9,0-10.8-4.8-10.8-10.8s4.8-10.8,10.8-10.8c5.9,0,10.8,4.8,10.8,10.8S247.5,663.6,241.5,663.6
		z M241.5,644.1c-4.8,0-8.8,3.9-8.8,8.8s3.9,8.8,8.8,8.8s8.8-3.9,8.8-8.8S246.4,644.1,241.5,644.1z"/>
</g>
<g>
	<g>
		<path class="st2" d="M296.3,657.4c-3.2,0-7.7-0.6-10.3-3.7c-5.9-7-0.3-17.4-0.1-17.8c0.3-0.5,0.9-0.7,1.4-0.4
			c0.5,0.3,0.7,0.9,0.4,1.4c-0.1,0.1-5.1,9.6-0.2,15.5c3.6,4.3,12.3,2.7,12.4,2.7c0.5-0.1,1.1,0.3,1.2,0.8c0.1,0.5-0.3,1.1-0.8,1.2
			C300.2,657.1,298.5,657.4,296.3,657.4z"/>
	</g>
	<g>
		<path class="st2" d="M298,647.4h-12.7c-0.6,0-1-0.4-1-1s0.4-1,1-1H298c0.6,0,1,0.4,1,1S298.6,647.4,298,647.4z"/>
	</g>
	<g>
		<path class="st2" d="M301.7,637.4h-14.2c-0.6,0-1-0.4-1-1s0.4-1,1-1h14.2c0.6,0,1,0.4,1,1S302.3,637.4,301.7,637.4z"/>
	</g>
</g>
<g class="st15">
	<g>
		<path class="st2" d="M569.5,174.8H378.8c-15.3,0-27.7-12.4-27.7-27.7v0c0-15.3,12.4-27.7,27.7-27.7h190.7
			c15.3,0,27.7,12.4,27.7,27.7v0C597.1,162.4,584.8,174.8,569.5,174.8z"/>
	</g>
</g>
<g class="st1">
	<path d="M663.6,212.2H492.9c-15.9,0-28.7-12.9-28.7-28.7v0c0-15.9,12.9-28.7,28.7-28.7h170.7V212.2z"/>
</g>
<g>
	<path class="st7" d="M309.1,615.9c-0.1,0-0.1,0-0.2,0l-92.1-18.7c-0.5-0.1-0.9-0.6-0.8-1.2c0.1-0.5,0.6-0.9,1.2-0.8l92.1,18.7
		c0.5,0.1,0.9,0.6,0.8,1.2C310,615.6,309.6,615.9,309.1,615.9z"/>
</g>
<g>
	<path class="st7" d="M105,529c-0.2,0-0.4-0.1-0.6-0.2c-0.4-0.3-0.5-1-0.2-1.4c24.8-31.9,57.7-49.3,58.1-49.4
		c0.5-0.3,1.1-0.1,1.3,0.4c0.3,0.5,0.1,1.1-0.4,1.3c-0.3,0.2-32.9,17.3-57.4,48.9C105.6,528.9,105.3,529,105,529z"/>
</g>
<g>
	<path class="st7" d="M131.1,490.3H83.3c-0.6,0-1-0.4-1-1s0.4-1,1-1h47.9c0.6,0,1,0.4,1,1S131.7,490.3,131.1,490.3z"/>
</g>
<g>
	<path class="st7" d="M92.5,489.6c-0.1,0-0.1,0-0.2,0c-0.5-0.1-0.9-0.6-0.8-1.2l2.5-14.8c0.1-0.5,0.6-0.9,1.2-0.8
		c0.5,0.1,0.9,0.6,0.8,1.2l-2.5,14.8C93.4,489.3,93,489.6,92.5,489.6z"/>
</g>
<g>
	<path class="st7" d="M107.4,489.6c-0.1,0-0.1,0-0.2,0c-0.5-0.1-0.9-0.6-0.8-1.2l2.5-13.8c0.1-0.5,0.6-0.9,1.2-0.8
		c0.5,0.1,0.9,0.6,0.8,1.2l-2.5,13.8C108.3,489.3,107.9,489.6,107.4,489.6z"/>
</g>
<g>
	<path class="st7" d="M122.3,490.5c-0.1,0-0.1,0-0.2,0c-0.5-0.1-0.9-0.6-0.8-1.1l2.2-13.4c0.1-0.5,0.6-0.9,1.1-0.8
		c0.5,0.1,0.9,0.6,0.8,1.1l-2.2,13.4C123.3,490.2,122.8,490.5,122.3,490.5z"/>
</g>
<g>
	<path class="st13" d="M201.7,422.6c-0.3,0-0.6-0.1-0.8-0.3c-0.4-0.4-0.3-1,0.1-1.4l50.3-44c0.4-0.4,1-0.3,1.4,0.1
		c0.4,0.4,0.3,1-0.1,1.4l-50.3,44C202.1,422.5,201.9,422.6,201.7,422.6z"/>
</g>
<g>
	<path class="st7" d="M104.2,570.9c-2.6,0-5-0.5-7.2-1.6c-6.4-3.4-9.5-11.8-9.4-25.1c0-0.6,0.4-1,1-1c0.6,0,1,0.5,1,1
		c-0.2,12.4,2.6,20.3,8.3,23.3c9.3,4.9,24.4-3.9,32.6-9.7c6.4-4.5,18.1-14,31.7-25.1c24.4-20,54.8-44.8,77.7-59.6
		c0.5-0.3,1.1-0.2,1.4,0.3c0.3,0.5,0.2,1.1-0.3,1.4c-22.8,14.8-53.1,39.6-77.5,59.5c-13.6,11.1-25.4,20.7-31.8,25.2
		C125,564.2,113.7,570.9,104.2,570.9z"/>
</g>
<g>
	<path class="st11" d="M378.6,42.7c-2.5,0-4.9-1.1-6.7-2.9l-13.2-14c-1.2-1.3-3.4-1.3-4.6,0l-13.2,14c-1.7,1.8-4.2,2.9-6.7,2.9
		s-4.9-1.1-6.7-2.9l-13.2-14c-1.2-1.3-3.4-1.3-4.6,0l-13.2,14c-1.7,1.8-4.2,2.9-6.7,2.9s-4.9-1.1-6.7-2.9l-13.2-14
		c-1.2-1.3-3.4-1.3-4.6,0l-13.2,14c-1.7,1.8-4.2,2.9-6.7,2.9s-4.9-1.1-6.7-2.9l-13.2-14c-1.2-1.3-3.4-1.3-4.6,0l-13.2,14
		c-1.7,1.8-4.2,2.9-6.7,2.9s-4.9-1.1-6.7-2.9l-13.2-14c-1.2-1.3-3.4-1.3-4.6,0l-13.2,14c-1.7,1.8-4.2,2.9-6.7,2.9s-4.9-1.1-6.7-2.9
		L132.8,21c-1.1-1.2-1.1-3.1,0.1-4.2c1.2-1.1,3.1-1.1,4.2,0.1l17.7,18.8c1.2,1.3,3.4,1.3,4.6,0l13.2-14c1.7-1.8,4.2-2.9,6.7-2.9
		c0,0,0,0,0,0c2.5,0,4.9,1.1,6.7,2.9l13.2,14c1.2,1.3,3.4,1.3,4.6,0l13.2-14c1.7-1.8,4.2-2.9,6.7-2.9c0,0,0,0,0,0
		c2.5,0,4.9,1.1,6.7,2.9l13.2,14c1.2,1.3,3.4,1.3,4.6,0l13.2-14c1.7-1.8,4.2-2.9,6.7-2.9c2.5,0,4.9,1.1,6.7,2.9l13.2,14
		c1.2,1.3,3.4,1.3,4.6,0l13.2-14c1.7-1.8,4.2-2.9,6.7-2.9c2.5,0,4.9,1.1,6.7,2.9l13.2,14c1.2,1.3,3.4,1.3,4.6,0l13.2-14
		c1.7-1.8,4.2-2.9,6.7-2.9s4.9,1.1,6.7,2.9l13.2,14c1.2,1.3,3.4,1.3,4.6,0l17.7-18.8c1.1-1.2,3-1.3,4.2-0.1c1.2,1.1,1.3,3,0.1,4.2
		l-17.7,18.8C383.5,41.6,381.1,42.7,378.6,42.7z"/>
</g>
<g>
	<circle class="st11" cx="414.9" cy="38.4" r="4.3"/>
</g>
<g>
	<path class="st9" d="M700.1,197.2H502.9c-15.9,0-28.7-12.9-28.7-28.7v0c0-15.9,12.9-28.7,28.7-28.7h197.2
		c15.9,0,28.7,12.9,28.7,28.7v0C728.9,184.3,716,197.2,700.1,197.2z"/>
</g>
<g>
	<path class="st13" d="M666.8,173.5H536.2c-2.8,0-5-2.2-5-5s2.2-5,5-5h130.7c2.8,0,5,2.2,5,5S669.6,173.5,666.8,173.5z"/>
</g>
<g class="st3">
	<g>
		<path class="st4" d="M520,295.6H316.2c-2.8,0-5-2.2-5-5s2.2-5,5-5H520c2.8,0,5,2.2,5,5S522.8,295.6,520,295.6z"/>
	</g>
</g>
<g>
	<path class="st16" d="M681,295.6H551.9c-2.8,0-5-2.2-5-5s2.2-5,5-5H681c2.8,0,5,2.2,5,5S683.8,295.6,681,295.6z"/>
</g>
<g class="st17">
	<g>
		<path class="st2" d="M529.2,612.2h-58.4l-29.9,16.8v-69.3c0-13.4,10.9-24.2,24.2-24.2h64c13.4,0,24.2,10.9,24.2,24.2v28.3
			C553.4,601.3,542.5,612.2,529.2,612.2z"/>
	</g>
</g>
<g>
	<g>
		<path class="st11" d="M590.9,529.5l-0.9-1.8l86.7-43.7l-64-49l1.2-1.6l65.3,50c0.3,0.2,0.4,0.5,0.4,0.9c0,0.3-0.2,0.6-0.5,0.8
			L590.9,529.5z"/>
	</g>
	<g>
		<g>
			<circle class="st18" cx="613.4" cy="434.2" r="20.7"/>
		</g>
		<g>
			<circle class="st9" cx="590.5" cy="528.6" r="20.7"/>
		</g>
	</g>
	<g>
		<circle class="st11" cx="678.6" cy="484.1" r="32.6"/>
	</g>
</g>
<g class="st17">
	<g>
		<path class="st2" d="M126.3,443.4c6.5,2,11.4,6.6,14.6,13.4c6.4,13.5,16.2,18.5,26.5,19.5c3.6-1.8,8.3-4,13.7-6.6
			c-13.1,2.2-27,1.1-34.8-15.4c-4-8.4-10.1-14-18.3-16.6c-9.8-3.1-20.7-1.3-29.6,1.5c-0.7,2.4-1.4,4.7-2.1,7.1
			C104.9,443.1,116.6,440.3,126.3,443.4z"/>
	</g>
	<g>
		<path class="st2" d="M146.8,420.2c13.8,29.1,33.7,36.7,47.9,38c1.7,0.2,3.4,0.2,5,0.2c2.3,0,4.5-0.1,6.5-0.4
			c4.9-2.3,10-4.6,15.1-6.9c-0.8-0.7-1.6-1.5-2.3-2.3c-3.1,1.2-12.4,4.4-23.8,3.4c-18.5-1.6-33-13.3-43-34.6
			c-4.9-10.4-10.2-18.4-15.9-24c-1.4,1.7-2.7,3.3-3.9,4.7C137.4,403.3,142.3,410.6,146.8,420.2z"/>
	</g>
	<g>
		<path class="st2" d="M160.5,404.2c8,5.7,19.1,5,33-2c14.2-7.2,27.1-8.2,38.2-3c3.4,1.6,6.5,3.7,9.3,6c1.6-1.5,3-2.8,3.9-3.7
			l0.5-0.5c-3.2-2.8-6.9-5.4-11.1-7.3c-12.9-6-27.5-4.9-43.5,3.1c-11.7,5.9-20.7,6.7-26.8,2.4c-9.6-6.8-10.7-25-10.4-36
			c-1.5,4.2-3.4,8.5-5.6,12.7C149,386.7,152.2,398.3,160.5,404.2z"/>
	</g>
	<g>
		<path class="st2" d="M189.4,357.8c2,0,4.1-0.1,6.3-0.4c9.5-1.3,17-2.8,23-4c7.7-1.5,12.9-2.5,17.4-2.3c-0.9-1.9-1.8-3.9-2.9-6
			c-4.4,0.2-9.4,1.2-15.6,2.4c-5.9,1.2-13.3,2.6-22.6,3.9c-17.5,2.4-27.9-7-33.8-16.3c-0.6,2.5-1.1,5-1.7,7.7
			C165.7,350.8,175.3,357.8,189.4,357.8z"/>
	</g>
</g>
<g>
	<path class="st14" d="M88.3,427.3c-8.2,0-16.9-1.3-26.2-3.9c-26.8-7.6-39.3-24.5-45-37.3c-6.2-13.9-6.1-25.7-6.1-26.2l0-0.6
		l0.6-0.3c0.4-0.2,39.5-18.8,79.1-35.4c23.3-9.7,42.2-16.9,56.2-21.2c24.3-7.5,29-5,30.5-2.5c7.6,13.4,6.6,14.6,6.1,15.3
		c-0.4,0.4-0.9,0.5-1.3,0.4c-0.1,0-2.4-0.5-5.4,1.4c-3.7,2.3-8.9,8.5-12.4,24.6c-3.1,14.5-12.7,58.6-43.5,77.1
		C111.4,424.4,100.4,427.3,88.3,427.3z M13,360.5c0.1,2.6,0.7,13.1,6,24.8c5.6,12.4,17.7,28.7,43.7,36.1c22.4,6.4,41.7,4.9,57.3-4.5
		c30.1-18,39.5-61.5,42.6-75.8c3.7-16.9,9.3-23.5,13.4-26c2.5-1.5,4.7-1.7,5.8-1.7c-0.3-1.2-1.4-4.4-6.1-12.6
		c-1.5-2.6-12.6-5.4-84.2,24.6C54.5,340.9,18,358.1,13,360.5z"/>
</g>
<g>
	<g>
		<g>
			<g>
				<path class="st14" d="M278.5,258.1c25.5-20.4,11-38.7-8.5-41.6c-31.5-22.5-53.9-13.1-69.6,4.9c-5.8,6.7-7,14.3-22.9,13.3
					c-23.1-1.5-43.3,6-52.1,25.2c-17.2,37.9-34.9,21.2-79.9,33.9c-62.7,17.6-43.2,121.6,15.2,124.8c78.5,4.4,72.4-60.2,84.5-98.1
					c6.1-19.1,36.1-35.7,36.1-35.7s56.8-18.4,59.7-21.5C243.9,260.2,274.5,261.3,278.5,258.1z"/>
			</g>
			<g>
				<path class="st5" d="M262.9,231.1c0,0,14.7-3.1,17,4.5c3,10.3-2.1,27.9-0.7,34.9c0.7,3.6,1.9,6.9,2.5,8.3
					c1.7,3.9-2.1,5.6-6.2,5.9c0,0-3.8,18.5-11,21.1c-11.5,4.1-32.5-14.6-37.1-20.7s-3.3-25.4,8.4-39.4
					C241.6,238.6,245.2,228.9,262.9,231.1z"/>
			</g>
			<g>
				<g>
					
						<ellipse transform="matrix(0.9905 0.1376 -0.1376 0.9905 39.1716 -34.5719)" class="st19" cx="269.7" cy="266.1" rx="1.5" ry="2"/>
				</g>
				<g>
					<path class="st14" d="M266.7,259.4c-0.5,0-0.9-0.4-1-0.9c-0.1-0.5,0.3-1.1,0.9-1.1c0.2,0,4.2-0.6,6.9-0.1
						c0.5,0.1,0.9,0.6,0.8,1.1c-0.1,0.5-0.6,0.9-1.1,0.8c-2.4-0.4-6.3,0.1-6.3,0.1C266.8,259.4,266.8,259.4,266.7,259.4z"/>
				</g>
			</g>
			<g>
				<g>
					<path class="st14" d="M267.2,216.9c-27.5-5.1-153.8,99.2-153.3,109.1c2.1,45.8-86.6,75.6-87.4,75.8
						c22.5,31.1,71.1,25.5,82.3,18.5c17.2-10.7,40.5-34,54.8-77.5c11.3-34.5,37-13.1,52.1-46.6c2.5-5.5,6.2-15,10.1-25
						c1.2-1.9,2.5-6.3,2.6-6.8c0.8-2,7.2-10.6,9.5-9.8c10.8,3.8,20.5-3,24.4-6.5c7.8-7,12.8-7.8,17.3-9.6c1.4-0.5,1.9-0.7,2.1-0.7
						c-0.2,0-0.5-0.3,0.2-1.6C282.4,235.2,287.8,220.7,267.2,216.9z"/>
				</g>
				<g>
					<path class="st14" d="M281.7,237.8C281.7,237.8,281.8,237.8,281.7,237.8L281.7,237.8z"/>
				</g>
			</g>
			<g>
				
					<ellipse transform="matrix(-0.9789 0.2044 -0.2044 -0.9789 509.1324 463.9446)" class="st5" cx="230.6" cy="258.3" rx="11" ry="12.4"/>
			</g>
			<g>
				<path class="st20" d="M236,258.7c-0.5,0-0.9-0.3-1-0.8c-0.4-1.8-1.2-2.7-2.3-2.8c-1.4-0.1-2.9,1-3,1.4c-0.2,0.5-0.8,0.8-1.3,0.5
					c-0.5-0.2-0.8-0.8-0.5-1.3c0.6-1.4,3-2.9,5.1-2.7c1.2,0.1,3.3,0.8,4.1,4.4c0.1,0.5-0.2,1.1-0.8,1.2
					C236.1,258.7,236,258.7,236,258.7z"/>
			</g>
			<g>
				<path class="st20" d="M266.5,288.5c-0.1,0-0.2,0-0.2,0c-3.7-0.9-4.7-3.6-4.7-4.9c0-0.6,0.4-1,1-1c0,0,0,0,0,0c0.6,0,1,0.4,1,1
					c0,0.2,0.1,2.2,3.2,2.9c0.5,0.1,0.9,0.7,0.7,1.2C267.4,288.2,267,288.5,266.5,288.5z"/>
			</g>
		</g>
	</g>
</g>
<g>
	<path class="st16" d="M283.4,143.2H62.1c-15.4,0-27.8-12.5-27.8-27.8v0c0-15.4,12.5-27.8,27.8-27.8h221.3
		c15.4,0,27.8,12.5,27.8,27.8v0C311.2,130.7,298.8,143.2,283.4,143.2z"/>
</g>
<g>
	<path class="st18" d="M252,120.3H97.4c-2.8,0-5-2.2-5-5s2.2-5,5-5H252c2.8,0,5,2.2,5,5S254.8,120.3,252,120.3z"/>
</g>
<g>
	<path class="st11" d="M646,32.3H439.7c-1.7,0-3-1.3-3-3s1.3-3,3-3H646c1.7,0,3,1.3,3,3S647.6,32.3,646,32.3z"/>
</g>
<g>
	<g>
		<path class="st20" d="M432.5,317.5c-0.5,0-0.9-0.3-1-0.8c-0.1-0.5,0.3-1.1,0.8-1.2l15.5-2.9c0.5-0.1,1.1,0.3,1.2,0.8
			c0.1,0.5-0.3,1.1-0.8,1.2l-15.5,2.9C432.6,317.5,432.6,317.5,432.5,317.5z"/>
	</g>
	<g>
		<path class="st20" d="M438.9,325.5c-0.4,0-0.9-0.3-1-0.8c-0.1-0.5,0.2-1.1,0.7-1.2l14.3-3.6c0.5-0.1,1.1,0.2,1.2,0.7
			c0.1,0.5-0.2,1.1-0.7,1.2l-14.3,3.6C439,325.5,439,325.5,438.9,325.5z"/>
	</g>
	<g>
		<path class="st20" d="M447.2,331c-0.4,0-0.9-0.3-1-0.8c-0.1-0.5,0.2-1.1,0.7-1.2l9.5-2.4c0.5-0.1,1.1,0.2,1.2,0.7
			c0.1,0.5-0.2,1.1-0.7,1.2l-9.5,2.4C447.4,331,447.3,331,447.2,331z"/>
	</g>
</g>
<g>
	<path class="st20" d="M293.3,461.1C293.3,461.1,293.3,461.1,293.3,461.1c-0.6,0-1-0.5-1-1.1c0-0.5,0.9-13.3,9.3-21.8
		c0.4-0.4,1-0.4,1.4,0c0.4,0.4,0.4,1,0,1.4c-7.9,7.9-8.7,20.4-8.7,20.5C294.3,460.6,293.9,461.1,293.3,461.1z"/>
</g>
<g>
	<circle class="st0" cx="678.6" cy="472.3" r="8.6"/>
</g>
<g>
	<path class="st0" d="M697.3,504.9c-0.6,0-1-0.4-1-1c0-9.8-7.9-17.7-17.7-17.7c-9.8,0-17.7,7.9-17.7,17.7c0,0.6-0.4,1-1,1
		s-1-0.4-1-1c0-10.9,8.8-19.7,19.7-19.7c10.9,0,19.7,8.8,19.7,19.7C698.3,504.5,697.9,504.9,697.3,504.9z"/>
</g>
<g>
	<g class="st1">
		<path class="st2" d="M23.1,365.8c-0.5,0-0.9-0.4-1-0.9c-0.1-0.8-2-19.3,11.5-32.8c11.2-11.2,29.4-15.5,54.1-12.9
			c28.9,3.1,47.2-9.8,54.5-38.3c4-15.7,14.2-16.8,24.9-18c11.3-1.2,24.1-2.6,32.7-21.8c0.2-0.4,18.3-32.9,55.3-29.5
			c0.5,0.1,1,0.5,0.9,1.1c-0.1,0.5-0.5,1-1.1,0.9c-35.7-3.3-53.1,28.1-53.3,28.4c-9,20.2-22.4,21.6-34.2,22.9
			c-10.5,1.1-19.5,2.1-23.2,16.5c-7.5,29.6-26.6,43-56.7,39.8c-24.1-2.6-41.7,1.5-52.4,12.3c-12.8,12.9-11,31-11,31.2
			c0.1,0.5-0.3,1-0.9,1.1C23.2,365.8,23.2,365.8,23.1,365.8z"/>
	</g>
	<g class="st1">
		<path class="st2" d="M225.5,246.6c-0.2,0-0.4-0.1-0.6-0.2c-0.5-0.3-0.6-0.9-0.3-1.4c25-37.7,45.1-26.1,45.9-25.6
			c0.5,0.3,0.6,0.9,0.3,1.4c-0.3,0.5-0.9,0.6-1.4,0.3c-0.2-0.1-19.4-10.9-43.2,25C226.1,246.4,225.8,246.6,225.5,246.6z"/>
	</g>
</g>
</svg>
